<svg xmlns="http://www.w3.org/2000/svg" style="display:none">
  <defs>
    <!-- Navigation & Actions -->
    <symbol id="ico-download" viewBox="0 0 24 24" fill="none" stroke="currentColor" stroke-width="2" stroke-linecap="round" stroke-linejoin="round">
      <path d="M12 15V3"/><path d="M21 15v4a2 2 0 0 1-2 2H5a2 2 0 0 1-2-2v-4"/><path d="m7 10 5 5 5-5"/>
    </symbol>
    <symbol id="ico-history" viewBox="0 0 24 24" fill="none" stroke="currentColor" stroke-width="2" stroke-linecap="round" stroke-linejoin="round">
      <path d="M3 12a9 9 0 1 0 9-9 9.75 9.75 0 0 0-6.74 2.74L3 8"/><path d="M3 3v5h5"/><path d="M12 7v5l4 2"/>
    </symbol>
    <symbol id="ico-wrench" viewBox="0 0 24 24" fill="none" stroke="currentColor" stroke-width="2" stroke-linecap="round" stroke-linejoin="round">
      <path d="M14.7 6.3a1 1 0 0 0 0 1.4l1.6 1.6a1 1 0 0 0 1.4 0l3.77-3.77a6 6 0 0 1-7.94 7.94l-6.91 6.91a2.12 2.12 0 0 1-3-3l6.91-6.91a6 6 0 0 1 7.94-7.94l-3.76 3.76z"/>
    </symbol>
    <symbol id="ico-settings" viewBox="0 0 24 24" fill="none" stroke="currentColor" stroke-width="2" stroke-linecap="round" stroke-linejoin="round">
      <path d="M20 7h-9"/><path d="M14 17H5"/><circle cx="17" cy="17" r="3"/><circle cx="7" cy="7" r="3"/>
    </symbol>
    <symbol id="ico-help" viewBox="0 0 24 24" fill="none" stroke="currentColor" stroke-width="2" stroke-linecap="round" stroke-linejoin="round">
      <circle cx="12" cy="12" r="10"/><path d="M9.09 9a3 3 0 0 1 5.83 1c0 2-3 3-3 3"/><path d="M12 17h.01"/>
    </symbol>
    <symbol id="ico-info" viewBox="0 0 24 24" fill="none" stroke="currentColor" stroke-width="2" stroke-linecap="round" stroke-linejoin="round">
      <circle cx="12" cy="12" r="10"/><path d="M12 16v-4"/><path d="M12 8h.01"/>
    </symbol>
    <symbol id="ico-power" viewBox="0 0 24 24" fill="none" stroke="currentColor" stroke-width="2" stroke-linecap="round" stroke-linejoin="round">
      <path d="M12 2v10"/><path d="M18.36 6.64a9 9 0 1 1-12.73 0"/>
    </symbol>
    <symbol id="ico-refresh" viewBox="0 0 24 24" fill="none" stroke="currentColor" stroke-width="2" stroke-linecap="round" stroke-linejoin="round">
      <path d="M3 12a9 9 0 0 1 9-9 9.75 9.75 0 0 1 6.74 2.74L21 8"/><path d="M21 3v5h-5"/><path d="M21 12a9 9 0 0 1-9 9 9.75 9.75 0 0 1-6.74-2.74L3 16"/><path d="M8 16H3v5"/>
    </symbol>

    <!-- Media & UI -->
    <symbol id="ico-list" viewBox="0 0 24 24" fill="none" stroke="currentColor" stroke-width="2" stroke-linecap="round" stroke-linejoin="round">
      <path d="M8 6h13"/><path d="M8 12h13"/><path d="M8 18h13"/><path d="M3 6h.01"/><path d="M3 12h.01"/><path d="M3 18h.01"/>
    </symbol>
    <symbol id="ico-link" viewBox="0 0 24 24" fill="none" stroke="currentColor" stroke-width="2" stroke-linecap="round" stroke-linejoin="round">
      <path d="M10 13a5 5 0 0 0 7.54.54l3-3a5 5 0 0 0-7.07-7.07l-1.72 1.71"/><path d="M14 11a5 5 0 0 0-7.54-.54l-3 3a5 5 0 0 0 7.07 7.07l1.71-1.71"/>
    </symbol>
    <symbol id="ico-plus" viewBox="0 0 24 24" fill="none" stroke="currentColor" stroke-width="2" stroke-linecap="round" stroke-linejoin="round">
      <path d="M5 12h14"/><path d="M12 5v14"/>
    </symbol>
    <symbol id="ico-square" viewBox="0 0 24 24" fill="none" stroke="currentColor" stroke-width="2" stroke-linecap="round" stroke-linejoin="round">
      <rect width="18" height="18" x="3" y="3" rx="2"/>
    </symbol>
    <symbol id="ico-check" viewBox="0 0 24 24" fill="none" stroke="currentColor" stroke-width="2" stroke-linecap="round" stroke-linejoin="round">
      <path d="M20 6 9 17l-5-5"/>
    </symbol>
    <symbol id="ico-x" viewBox="0 0 24 24" fill="none" stroke="currentColor" stroke-width="2" stroke-linecap="round" stroke-linejoin="round">
      <path d="M18 6 6 18"/><path d="M6 6l12 12"/>
    </symbol>
    <symbol id="ico-layers" viewBox="0 0 24 24" fill="none" stroke="currentColor" stroke-width="2" stroke-linecap="round" stroke-linejoin="round">
      <path d="M12.83 2.18a2 2 0 0 0-1.66 0L2.6 6.08a1 1 0 0 0 0 1.83l8.58 3.91a2 2 0 0 0 1.66 0l8.58-3.9a1 1 0 0 0 0-1.83Z"/><path d="m22 17.65-9.17 4.16a2 2 0 0 1-1.66 0L2 17.65"/><path d="m22 12.65-9.17 4.16a2 2 0 0 1-1.66 0L2 12.65"/>
    </symbol>
    <symbol id="ico-trash" viewBox="0 0 24 24" fill="none" stroke="currentColor" stroke-width="2" stroke-linecap="round" stroke-linejoin="round">
      <path d="M3 6h18"/><path d="M19 6v14a2 2 0 0 1-2 2H7a2 2 0 0 1-2-2V6"/><path d="M8 6V4a2 2 0 0 1 2-2h4a2 2 0 0 1 2 2v2"/><line x1="10" x2="10" y1="11" y2="17"/><line x1="14" x2="14" y1="11" y2="17"/>
    </symbol>
    <symbol id="ico-bookmark" viewBox="0 0 24 24" fill="none" stroke="currentColor" stroke-width="2" stroke-linecap="round" stroke-linejoin="round">
      <path d="m19 21-7-4-7 4V5a2 2 0 0 1 2-2h10a2 2 0 0 1 2 2z"/>
    </symbol>
    <symbol id="ico-film" viewBox="0 0 24 24" fill="none" stroke="currentColor" stroke-width="2" stroke-linecap="round" stroke-linejoin="round">
      <rect width="18" height="18" x="3" y="3" rx="2"/><path d="M7 3v18"/><path d="M3 7.5h4"/><path d="M3 12h18"/><path d="M3 16.5h4"/><path d="M17 3v18"/><path d="M17 7.5h4"/><path d="M17 16.5h4"/>
    </symbol>
    <symbol id="ico-globe" viewBox="0 0 24 24" fill="none" stroke="currentColor" stroke-width="2" stroke-linecap="round" stroke-linejoin="round">
      <circle cx="12" cy="12" r="10"/><path d="M12 2a14.5 14.5 0 0 0 0 20 14.5 14.5 0 0 0 0-20"/><path d="M2 12h20"/>
    </symbol>
    <symbol id="ico-cookie" viewBox="0 0 24 24" fill="none" stroke="currentColor" stroke-width="2" stroke-linecap="round" stroke-linejoin="round">
      <path d="M12 2a10 10 0 1 0 10 10 4 4 0 0 1-5-5 4 4 0 0 1-5-5"/><path d="M8.5 8.5v.01"/><path d="M16 15.5v.01"/><path d="M12 12v.01"/><path d="M11 17v.01"/><path d="M7 14v.01"/>
    </symbol>
    <symbol id="ico-cpu" viewBox="0 0 24 24" fill="none" stroke="currentColor" stroke-width="2" stroke-linecap="round" stroke-linejoin="round">
      <rect width="16" height="16" x="4" y="4" rx="2"/><rect width="6" height="6" x="9" y="9" rx="1"/><path d="M15 2v2"/><path d="M15 20v2"/><path d="M2 15h2"/><path d="M2 9h2"/><path d="M20 15h2"/><path d="M20 9h2"/><path d="M9 2v2"/><path d="M9 20v2"/>
    </symbol>
    <symbol id="ico-rotate" viewBox="0 0 24 24" fill="none" stroke="currentColor" stroke-width="2" stroke-linecap="round" stroke-linejoin="round">
      <path d="M3 2v6h6"/><path d="M21 12A9 9 0 1 1 6.5 4.7L3 8"/>
    </symbol>
    <symbol id="ico-save" viewBox="0 0 24 24" fill="none" stroke="currentColor" stroke-width="2" stroke-linecap="round" stroke-linejoin="round">
      <path d="M15.2 3a2 2 0 0 1 1.4.6l3.8 3.8a2 2 0 0 1 .6 1.4V19a2 2 0 0 1-2 2H5a2 2 0 0 1-2-2V5a2 2 0 0 1 2-2z"/><path d="M17 21v-7a1 1 0 0 0-1-1H8a1 1 0 0 0-1 1v7"/><path d="M7 3v4a1 1 0 0 0 1 1h7"/>
    </symbol>
    <symbol id="ico-music" viewBox="0 0 24 24" fill="none" stroke="currentColor" stroke-width="2" stroke-linecap="round" stroke-linejoin="round">
      <path d="M9 18V5l12-2v13"/><circle cx="6" cy="18" r="3"/><circle cx="18" cy="16" r="3"/>
    </symbol>
    <symbol id="ico-folder-open" viewBox="0 0 24 24" fill="none" stroke="currentColor" stroke-width="2" stroke-linecap="round" stroke-linejoin="round">
      <path d="m6 14 1.5-2.9A2 2 0 0 1 9.24 10H20a2 2 0 0 1 1.94 2.5l-1.54 6a2 2 0 0 1-1.95 1.5H4a2 2 0 0 1-2-2V5a2 2 0 0 1 2-2h3.9a2 2 0 0 1 1.69.9l.81 1.2a2 2 0 0 0 1.67.9H18a2 2 0 0 1 2 2v2"/>
    </symbol>
    <symbol id="ico-folder" viewBox="0 0 24 24" fill="none" stroke="currentColor" stroke-width="2" stroke-linecap="round" stroke-linejoin="round">
      <path d="M20 20a2 2 0 0 0 2-2V8a2 2 0 0 0-2-2h-7.9a2 2 0 0 1-1.69-.9L9.6 3.9A2 2 0 0 0 7.93 3H4a2 2 0 0 0-2 2v13a2 2 0 0 0 2 2Z"/>
    </symbol>
    <symbol id="ico-file-text" viewBox="0 0 24 24" fill="none" stroke="currentColor" stroke-width="2" stroke-linecap="round" stroke-linejoin="round">
      <path d="M15 2H6a2 2 0 0 0-2 2v16a2 2 0 0 0 2 2h12a2 2 0 0 0 2-2V7Z"/><path d="M14 2v4a2 2 0 0 0 2 2h4"/><path d="M10 9H8"/><path d="M16 13H8"/><path d="M16 17H8"/>
    </symbol>

    <!-- Media Controls -->
    <symbol id="ico-play" viewBox="0 0 24 24" fill="none" stroke="currentColor" stroke-width="2" stroke-linecap="round" stroke-linejoin="round">
      <path d="M6 3 20 12 6 21Z"/>
    </symbol>
    <symbol id="ico-rocket" viewBox="0 0 24 24" fill="none" stroke="currentColor" stroke-width="2" stroke-linecap="round" stroke-linejoin="round">
      <path d="M4.5 16.5c-1.5 1.26-2 5-2 5s3.74-.5 5-2c.71-.84.7-2.13-.09-2.91a2.18 2.18 0 0 0-2.91-.09z"/><path d="M12 15l-3-3a22 22 0 0 1 2-3.95A12.88 12.88 0 0 1 22 2c0 2.72-.78 7.5-6 11a22.35 22.35 0 0 1-4 2z"/><path d="M9 12H4s.55-3.03 2-4c1.62-1.08 5 0 5 0"/><path d="M12 15v5s3.03-.55 4-2c1.08-1.62 0-5 0-5"/>
    </symbol>
    <symbol id="ico-tv" viewBox="0 0 24 24" fill="none" stroke="currentColor" stroke-width="2" stroke-linecap="round" stroke-linejoin="round">
      <rect width="20" height="15" x="2" y="7" rx="2"/><path d="M17 2l-5 5-5-5"/>
    </symbol>
    <symbol id="ico-arrow-up" viewBox="0 0 24 24" fill="none" stroke="currentColor" stroke-width="2" stroke-linecap="round" stroke-linejoin="round">
      <path d="m5 12 7-7 7 7"/><path d="M12 19V5"/>
    </symbol>
    <symbol id="ico-inbox" viewBox="0 0 24 24" fill="none" stroke="currentColor" stroke-width="2" stroke-linecap="round" stroke-linejoin="round">
      <path d="M22 12h-6l-2 3h-4l-2-3H2"/><path d="M5.45 5.11 2 12v6a2 2 0 0 0 2 2h16a2 2 0 0 0 2-2v-6l-3.45-6.89A2 2 0 0 0 16.76 4H7.24a2 2 0 0 0-1.79 1.11z"/>
    </symbol>
    <symbol id="ico-terminal" viewBox="0 0 24 24" fill="none" stroke="currentColor" stroke-width="2" stroke-linecap="round" stroke-linejoin="round">
      <path d="m4 17 6-6-6-6"/><path d="M12 19h8"/>
    </symbol>

    <!-- Theme & System -->
    <symbol id="ico-sun" viewBox="0 0 24 24" fill="none" stroke="currentColor" stroke-width="2" stroke-linecap="round" stroke-linejoin="round">
      <circle cx="12" cy="12" r="4"/><path d="M12 2v2"/><path d="M12 20v2"/><path d="m4.93 4.93 1.41 1.41"/><path d="m17.66 17.66 1.41 1.41"/><path d="M2 12h2"/><path d="M20 12h2"/><path d="m6.34 17.66-1.41 1.41"/><path d="m19.07 4.93-1.41 1.41"/>
    </symbol>
    <symbol id="ico-moon" viewBox="0 0 24 24" fill="none" stroke="currentColor" stroke-width="2" stroke-linecap="round" stroke-linejoin="round">
      <path d="M12 3a6 6 0 0 0 9 9 9 9 0 1 1-9-9Z"/>
    </symbol>
    <symbol id="ico-monitor" viewBox="0 0 24 24" fill="none" stroke="currentColor" stroke-width="2" stroke-linecap="round" stroke-linejoin="round">
      <rect width="20" height="14" x="2" y="3" rx="2"/><path d="M8 21h8"/><path d="M12 17v4"/>
    </symbol>
    <symbol id="ico-lock" viewBox="0 0 24 24" fill="none" stroke="currentColor" stroke-width="2" stroke-linecap="round" stroke-linejoin="round">
      <rect width="18" height="11" x="3" y="11" rx="2"/><path d="M7 11V7a5 5 0 0 1 10 0v4"/>
    </symbol>
    <symbol id="ico-external-link" viewBox="0 0 24 24" fill="none" stroke="currentColor" stroke-width="2" stroke-linecap="round" stroke-linejoin="round">
      <path d="M18 13v6a2 2 0 0 1-2 2H5a2 2 0 0 1-2-2V8a2 2 0 0 1 2-2h6"/><path d="M15 3h6v6"/><path d="M10 14 21 3"/>
    </symbol>
  </defs>
</svg>
